<?xml version="1.0" encoding="UTF-8"?>
<!DOCTYPE svg PUBLIC "-//W3C//DTD SVG 1.1//EN" "http://www.w3.org/Graphics/SVG/1.1/DTD/svg11.dtd">
<!-- Creator: CorelDRAW X7 -->
<svg xmlns="http://www.w3.org/2000/svg" xml:space="preserve" width="6.3187mm" height="6.3187mm" version="1.1" style="shape-rendering:geometricPrecision; text-rendering:geometricPrecision; image-rendering:optimizeQuality; fill-rule:evenodd; clip-rule:evenodd"
viewBox="0 0 845 845"
 xmlns:xlink="http://www.w3.org/1999/xlink">
 <defs>
  <style type="text/css">
   <![CDATA[
    .str0 {stroke:#66BB6A;stroke-width:26.7594}
    .fil0 {fill:#66BB6A}
    .fil1 {fill:#FEFEFE;fill-rule:nonzero}
    .fil2 {fill:#FEFEFE;fill-rule:nonzero}
   ]]>
  </style>
 </defs>
 <g id="Camada_x0020_1">
  <metadata id="CorelCorpID_0Corel-Layer"/>
  <circle class="fil0 str0" cx="423" cy="423" r="409"/>
  <path class="fil1" d="M537 292c-18,0 -33,-14 -33,-32 0,0 0,-27 0,-65l98 97 -65 0zm65 326c0,18 -15,33 -33,33l-293 0c-18,0 -33,-15 -33,-33l0 -391c0,-18 15,-32 33,-32l195 0c0,39 1,65 1,65 0,36 29,65 65,65 0,0 27,0 65,0l0 293zm-98 -456l0 1c-2,0 -11,-1 -32,-1l-196 0c-36,0 -65,29 -65,65l0 391c0,36 29,65 65,65l293 0c36,0 66,-29 66,-65l0 -293c0,-5 0,-9 0,-33l-131 -130z"/>
  <g id="_778234976">
   <polygon class="fil2" points="319,520 320,493 519,493 519,520 "/>
   <polygon class="fil2" points="406,407 433,407 433,606 406,606 "/>
   <polygon class="fil2" points="406,407 433,407 433,606 406,606 "/>
  </g>
 </g>
</svg>
