<?xml version="1.0" encoding="UTF-8"?>
<!DOCTYPE svg PUBLIC "-//W3C//DTD SVG 1.1//EN" "http://www.w3.org/Graphics/SVG/1.1/DTD/svg11.dtd">
<!-- Creator: CorelDRAW X7 -->
<svg xmlns="http://www.w3.org/2000/svg" xml:space="preserve" width="18.5529mm" height="18.5529mm" version="1.1" style="shape-rendering:geometricPrecision; text-rendering:geometricPrecision; image-rendering:optimizeQuality; fill-rule:evenodd; clip-rule:evenodd"
viewBox="0 0 314 314"
 xmlns:xlink="http://www.w3.org/1999/xlink">
 <defs>
  <style type="text/css">
   <![CDATA[
    .fil0 {fill:#D84A38}
   ]]>
  </style>
 </defs>
 <g id="Camada_x0020_1">
  <metadata id="CorelCorpID_0Corel-Layer"/>
  <g id="_758196544">
   <g id="_8_17_">
    <g>
     <path class="fil0" d="M157 0c-87,0 -157,70 -157,157 0,87 70,157 157,157 87,0 157,-70 157,-157 0,-87 -70,-157 -157,-157zm59 167l-49 0 0 49c0,6 -4,10 -10,10 -5,0 -9,-4 -9,-10l0 -49 -50 0c-5,0 -10,-4 -10,-10 0,-5 5,-9 10,-9l50 0 0 -50c0,-5 4,-10 9,-10 6,0 10,5 10,10l0 50 49 0c6,0 10,4 10,9 0,6 -4,10 -10,10z"/>
    </g>
   </g>
  </g>
 </g>
</svg>
