<?xml version="1.0" encoding="UTF-8"?>
<!DOCTYPE svg PUBLIC "-//W3C//DTD SVG 1.1//EN" "http://www.w3.org/Graphics/SVG/1.1/DTD/svg11.dtd">
<!-- Creator: CorelDRAW X7 -->
<svg xmlns="http://www.w3.org/2000/svg" xml:space="preserve" width="13.5291mm" height="13.5291mm" version="1.1" style="shape-rendering:geometricPrecision; text-rendering:geometricPrecision; image-rendering:optimizeQuality; fill-rule:evenodd; clip-rule:evenodd"
viewBox="0 0 1156 1156"
 xmlns:xlink="http://www.w3.org/1999/xlink">
 <defs>
  <style type="text/css">
   <![CDATA[
    .str0 {stroke:#FEFEFE;stroke-width:17.0852}
    .fil0 {fill:#FEFEFE}
    .fil1 {fill:#66BB6A}
   ]]>
  </style>
 </defs>
 <g id="Camada_x0020_1">
  <metadata id="CorelCorpID_0Corel-Layer"/>
  <circle class="fil0 str0" cx="577" cy="580" r="353"/>
 </g>
 <g id="Camada_x0020_1_0">
  <metadata id="CorelCorpID_1Corel-Layer"/>
  <g id="_758196544">
   <g id="_8_17_">
    <g>
     <path class="fil1" d="M580 0c-323,0 -580,257 -580,580 0,318 257,576 580,576 318,0 576,-258 576,-576 0,-323 -258,-580 -576,-580zm217 616l-181 0 0 181c0,21 -20,36 -36,36 -20,0 -35,-15 -35,-36l0 -181 -187 0c-15,0 -35,-20 -35,-36 0,-20 20,-35 35,-35l187 0 0 -187c0,-15 15,-35 35,-35 16,0 36,20 36,35l0 187 181 0c21,0 36,15 36,35 0,16 -15,36 -36,36z"/>
    </g>
   </g>
  </g>
 </g>
</svg>
