<?xml version="1.0" encoding="UTF-8"?>
<!DOCTYPE svg PUBLIC "-//W3C//DTD SVG 1.1//EN" "http://www.w3.org/Graphics/SVG/1.1/DTD/svg11.dtd">
<!-- Creator: CorelDRAW X7 -->
<svg xmlns="http://www.w3.org/2000/svg" xml:space="preserve" width="210mm" height="297mm" version="1.1" style="shape-rendering:geometricPrecision; text-rendering:geometricPrecision; image-rendering:optimizeQuality; fill-rule:evenodd; clip-rule:evenodd"
viewBox="0 0 21000 29700"
 xmlns:xlink="http://www.w3.org/1999/xlink">
 <defs>
  <style type="text/css">
   <![CDATA[
    .fil0 {fill:#D80027}
   ]]>
  </style>
 </defs>
 <g id="Camada_x0020_1">
  <metadata id="CorelCorpID_0Corel-Layer"/>
  <g id="_758196544">
   <g id="_8_17_">
    <g>
     <path class="fil0" d="M9761 13270c-465,0 -841,376 -841,841 0,463 376,840 841,840 463,0 840,-377 840,-840 0,-465 -377,-841 -840,-841zm315 894l-262 0 0 262c0,30 -25,53 -53,53 -29,0 -52,-23 -52,-53l0 -262 -265 0c-27,0 -52,-25 -52,-53 0,-29 25,-52 52,-52l265 0 0 -265c0,-27 23,-52 52,-52 28,0 53,25 53,52l0 265 262 0c30,0 53,23 53,52 0,28 -23,53 -53,53z"/>
    </g>
   </g>
  </g>
 </g>
</svg>
