<?xml version="1.0" encoding="UTF-8"?>
<!DOCTYPE svg PUBLIC "-//W3C//DTD SVG 1.1//EN" "http://www.w3.org/Graphics/SVG/1.1/DTD/svg11.dtd">
<!-- Creator: CorelDRAW X7 -->
<svg xmlns="http://www.w3.org/2000/svg" xml:space="preserve" width="210mm" height="297mm" version="1.1" style="shape-rendering:geometricPrecision; text-rendering:geometricPrecision; image-rendering:optimizeQuality; fill-rule:evenodd; clip-rule:evenodd"
viewBox="0 0 21000 29700"
 xmlns:xlink="http://www.w3.org/1999/xlink">
 <defs>
  <style type="text/css">
   <![CDATA[
    .fil0 {fill:#D84A38}
   ]]>
  </style>
 </defs>
 <g id="Camada_x0020_1">
  <metadata id="CorelCorpID_0Corel-Layer"/>
  <g id="_758196544">
   <g id="_8_17_">
    <g>
     <path class="fil0" d="M9506 13270c-324,0 -586,262 -586,586 0,323 262,586 586,586 323,0 586,-263 586,-586 0,-324 -263,-586 -586,-586zm220 623l-183 0 0 183c0,21 -17,37 -37,37 -20,0 -36,-16 -36,-37l0 -183 -185 0c-19,0 -36,-17 -36,-37 0,-20 17,-36 36,-36l185 0 0 -185c0,-19 16,-36 36,-36 20,0 37,17 37,36l0 185 183 0c21,0 37,16 37,36 0,20 -16,37 -37,37z"/>
    </g>
   </g>
  </g>
 </g>
</svg>
