<?xml version="1.0" encoding="UTF-8"?>
<!DOCTYPE svg PUBLIC "-//W3C//DTD SVG 1.1//EN" "http://www.w3.org/Graphics/SVG/1.1/DTD/svg11.dtd">
<!-- Creator: CorelDRAW X7 -->
<svg xmlns="http://www.w3.org/2000/svg" xml:space="preserve" width="15.8373mm" height="15.8373mm" version="1.1" style="shape-rendering:geometricPrecision; text-rendering:geometricPrecision; image-rendering:optimizeQuality; fill-rule:evenodd; clip-rule:evenodd"
viewBox="0 0 229 229"
 xmlns:xlink="http://www.w3.org/1999/xlink">
 <defs>
  <style type="text/css">
   <![CDATA[
    .fil0 {fill:#D84A38}
   ]]>
  </style>
 </defs>
 <g id="Camada_x0020_1">
  <metadata id="CorelCorpID_0Corel-Layer"/>
  <g id="_758196544">
   <g id="_8_17_">
    <g>
     <path class="fil0" d="M115 0c-64,0 -115,51 -115,115 0,63 51,114 115,114 63,0 114,-51 114,-114 0,-64 -51,-115 -114,-115zm43 122l-36 0 0 36c0,4 -4,7 -7,7 -4,0 -7,-3 -7,-7l0 -36 -37 0c-3,0 -7,-4 -7,-7 0,-4 4,-7 7,-7l37 0 0 -37c0,-3 3,-7 7,-7 3,0 7,4 7,7l0 37 36 0c4,0 7,3 7,7 0,3 -3,7 -7,7z"/>
    </g>
   </g>
  </g>
 </g>
</svg>
