<?xml version="1.0" encoding="UTF-8"?>
<!DOCTYPE svg PUBLIC "-//W3C//DTD SVG 1.1//EN" "http://www.w3.org/Graphics/SVG/1.1/DTD/svg11.dtd">
<!-- Creator: CorelDRAW X7 -->
<svg xmlns="http://www.w3.org/2000/svg" xml:space="preserve" width="11.7218mm" height="11.7218mm" version="1.1" style="shape-rendering:geometricPrecision; text-rendering:geometricPrecision; image-rendering:optimizeQuality; fill-rule:evenodd; clip-rule:evenodd"
viewBox="0 0 112 112"
 xmlns:xlink="http://www.w3.org/1999/xlink">
 <defs>
  <style type="text/css">
   <![CDATA[
    .fil0 {fill:#D84A38}
   ]]>
  </style>
 </defs>
 <g id="Camada_x0020_1">
  <metadata id="CorelCorpID_0Corel-Layer"/>
  <g id="_758196544">
   <g id="_8_17_">
    <g>
     <path class="fil0" d="M56 0c-31,0 -56,25 -56,56 0,31 25,56 56,56 31,0 56,-25 56,-56 0,-31 -25,-56 -56,-56zm21 59l-18 0 0 18c0,2 -1,3 -3,3 -2,0 -4,-1 -4,-3l0 -18 -17 0c-2,0 -4,-1 -4,-3 0,-2 2,-4 4,-4l17 0 0 -17c0,-2 2,-4 4,-4 2,0 3,2 3,4l0 17 18 0c2,0 3,2 3,4 0,2 -1,3 -3,3z"/>
    </g>
   </g>
  </g>
 </g>
</svg>
