<?xml version="1.0" encoding="UTF-8"?>
<!DOCTYPE svg PUBLIC "-//W3C//DTD SVG 1.1//EN" "http://www.w3.org/Graphics/SVG/1.1/DTD/svg11.dtd">
<!-- Creator: CorelDRAW X7 -->
<svg xmlns="http://www.w3.org/2000/svg" xml:space="preserve" width="6.3187mm" height="6.3187mm" version="1.1" style="shape-rendering:geometricPrecision; text-rendering:geometricPrecision; image-rendering:optimizeQuality; fill-rule:evenodd; clip-rule:evenodd"
viewBox="0 0 780 780"
 xmlns:xlink="http://www.w3.org/1999/xlink">
 <defs>
  <style type="text/css">
   <![CDATA[
    .str0 {stroke:#D94A38;stroke-width:24.7017}
    .fil1 {fill:#FEFEFE}
    .fil0 {fill:#D94A38}
   ]]>
  </style>
 </defs>
 <g id="Camada_x0020_1">
  <metadata id="CorelCorpID_0Corel-Layer"/>
  <circle class="fil0 str0" cx="390" cy="390" r="378"/>
  <g id="_629219312">
   <g>
    <g id="_4_19_">
     <g>
      <path class="fil1" d="M454 542c7,0 13,-5 13,-12l0 -152c0,-7 -6,-12 -13,-12 -7,0 -12,5 -12,12l0 152c0,7 5,12 12,12zm76 -303l-76 0 0 -25c0,-14 -11,-25 -25,-25l-76 0c-14,0 -25,11 -25,25l0 25 -76 0c-14,0 -25,12 -25,25l0 26c0,14 11,25 25,25l0 227c0,28 23,51 51,51l176 0c28,0 51,-23 51,-51l0 -227c14,0 25,-11 25,-25l0 -26c0,-13 -11,-25 -25,-25zm-177 -12c0,-7 6,-13 13,-13l50 0c7,0 13,6 13,13l0 12c-12,0 -76,0 -76,0l0 -12zm152 315c0,14 -12,26 -26,26l-176 0c-14,0 -26,-12 -26,-26l0 -227 228 0 0 227zm12 -252l-252 0c-7,0 -13,-6 -13,-13 0,-7 6,-13 13,-13l252 0c7,0 13,6 13,13 0,7 -6,13 -13,13zm-189 252c7,0 13,-5 13,-12l0 -152c0,-7 -6,-12 -13,-12 -7,0 -13,5 -13,12l0 152c0,7 6,12 13,12zm63 0c7,0 13,-5 13,-12l0 -152c0,-7 -6,-12 -13,-12 -7,0 -13,5 -13,12l0 152c0,7 6,12 13,12z"/>
     </g>
    </g>
   </g>
   <g>
   </g>
   <g>
   </g>
   <g>
   </g>
   <g>
   </g>
   <g>
   </g>
   <g>
   </g>
   <g>
   </g>
   <g>
   </g>
   <g>
   </g>
   <g>
   </g>
   <g>
   </g>
   <g>
   </g>
   <g>
   </g>
   <g>
   </g>
   <g>
   </g>
  </g>
 </g>
</svg>
