<?xml version="1.0" encoding="UTF-8"?>
<!DOCTYPE svg PUBLIC "-//W3C//DTD SVG 1.1//EN" "http://www.w3.org/Graphics/SVG/1.1/DTD/svg11.dtd">
<!-- Creator: CorelDRAW X7 -->
<svg xmlns="http://www.w3.org/2000/svg" xml:space="preserve" width="16.7614mm" height="22.0985mm" version="1.1" style="shape-rendering:geometricPrecision; text-rendering:geometricPrecision; image-rendering:optimizeQuality; fill-rule:evenodd; clip-rule:evenodd"
viewBox="0 0 81 106"
 xmlns:xlink="http://www.w3.org/1999/xlink">
 <defs>
  <style type="text/css">
   <![CDATA[
    .str0 {stroke:#505961;stroke-width:3.61257}
    .fil0 {fill:#505961;fill-rule:nonzero}
   ]]>
  </style>
 </defs>
 <g id="Camada_x0020_1">
  <metadata id="CorelCorpID_0Corel-Layer"/>
  <path class="fil0 str0" d="M40 50c-5,0 -9,-4 -9,-10 0,-5 4,-9 9,-9 6,0 10,4 10,9 0,6 -4,10 -10,10zm0 -26c-9,0 -16,7 -16,16 0,9 7,16 16,16 9,0 16,-7 16,-16 0,-9 -7,-16 -16,-16zm0 71c-5,0 -32,-41 -32,-55 0,-17 15,-32 32,-32 18,0 33,15 33,32 0,14 -27,55 -33,55zm0 -93c-21,0 -38,17 -38,38 0,16 32,65 38,65 7,0 39,-49 39,-65 0,-21 -17,-38 -39,-38z"/>
 </g>
</svg>
