<?xml version="1.0" encoding="UTF-8"?>
<!DOCTYPE svg PUBLIC "-//W3C//DTD SVG 1.1//EN" "http://www.w3.org/Graphics/SVG/1.1/DTD/svg11.dtd">
<!-- Creator: CorelDRAW X7 -->
<svg xmlns="http://www.w3.org/2000/svg" xml:space="preserve" width="19.3544mm" height="23.6448mm" version="1.1" style="shape-rendering:geometricPrecision; text-rendering:geometricPrecision; image-rendering:optimizeQuality; fill-rule:evenodd; clip-rule:evenodd"
viewBox="0 0 126 155"
 xmlns:xlink="http://www.w3.org/1999/xlink">
 <defs>
  <style type="text/css">
   <![CDATA[
    .str0 {stroke:#505961;stroke-width:4.90137}
    .fil0 {fill:#505961;fill-rule:nonzero}
   ]]>
  </style>
 </defs>
 <g id="Camada_x0020_1">
  <metadata id="CorelCorpID_0Corel-Layer"/>
  <path class="fil0 str0" d="M103 86c-1,0 -1,1 -2,1l-85 0c-2,0 -4,-2 -4,-5l0 -37c0,-3 2,-5 4,-5l85 0c1,0 2,0 2,1l11 22 -11 23zm-35 47c0,6 -4,10 -9,10l-10 0c-5,0 -9,-4 -9,-10l0 -37 28 0 0 37zm-28 -112c0,-5 4,-9 9,-9l10 0c5,0 9,4 9,9l0 10 -28 0 0 -10zm83 39l-14 -28c-1,-1 -3,-2 -4,-1l-28 0 0 -10c0,-10 -8,-19 -18,-19l-10 0c-10,0 -18,9 -18,19l0 10 -19 0c-5,0 -10,4 -10,9l0 47c0,5 5,9 10,9l19 0 0 37c0,11 8,19 18,19l10 0c10,0 18,-8 18,-19l0 -37 28 0 0 0c2,0 3,-1 4,-1l14 -28c1,-2 1,-3 1,-4 0,-1 0,-2 -1,-3z"/>
 </g>
</svg>
