<?xml version="1.0" encoding="UTF-8"?>
<!DOCTYPE svg PUBLIC "-//W3C//DTD SVG 1.1//EN" "http://www.w3.org/Graphics/SVG/1.1/DTD/svg11.dtd">
<!-- Creator: CorelDRAW X7 -->
<svg xmlns="http://www.w3.org/2000/svg" xml:space="preserve" width="18.3373mm" height="18.3373mm" version="1.1" style="shape-rendering:geometricPrecision; text-rendering:geometricPrecision; image-rendering:optimizeQuality; fill-rule:evenodd; clip-rule:evenodd"
viewBox="0 0 86 86"
 xmlns:xlink="http://www.w3.org/1999/xlink">
 <defs>
  <style type="text/css">
   <![CDATA[
    .str0 {stroke:#505961;stroke-width:3.52073}
    .fil0 {fill:#505961;fill-rule:nonzero}
   ]]>
  </style>
 </defs>
 <g id="Camada_x0020_1">
  <metadata id="CorelCorpID_0Corel-Layer"/>
  <path class="fil0 str0" d="M74 2l-21 0 0 5 21 0c3,0 5,2 5,5l0 21 5 0 0 -21c0,-6 -4,-10 -10,-10zm5 72c0,3 -2,5 -5,5l-21 0 0 5 21 0c6,0 10,-4 10,-10l0 -21 -5 0 0 21zm-72 0l0 -21 -5 0 0 21c0,6 4,10 10,10l21 0 0 -5 -21 0c-3,0 -5,-2 -5,-5zm-5 -62l0 21 5 0 0 -21c0,-3 2,-5 5,-5l21 0 0 -5 -21 0c-6,0 -10,4 -10,10z"/>
 </g>
</svg>
