<?xml version="1.0" encoding="UTF-8"?>
<!DOCTYPE svg PUBLIC "-//W3C//DTD SVG 1.1//EN" "http://www.w3.org/Graphics/SVG/1.1/DTD/svg11.dtd">
<!-- Creator: CorelDRAW X7 -->
<svg xmlns="http://www.w3.org/2000/svg" xml:space="preserve" width="19.2463mm" height="20.7938mm" version="1.1" style="shape-rendering:geometricPrecision; text-rendering:geometricPrecision; image-rendering:optimizeQuality; fill-rule:evenodd; clip-rule:evenodd"
viewBox="0 0 92 100"
 xmlns:xlink="http://www.w3.org/1999/xlink">
 <defs>
  <style type="text/css">
   <![CDATA[
    .str0 {stroke:#505961;stroke-width:3.60163}
    .fil0 {fill:#505961}
   ]]>
  </style>
 </defs>
 <g id="Camada_x0020_1">
  <metadata id="CorelCorpID_0Corel-Layer"/>
  <g id="_710013392">
   <g>
    <path class="fil0 str0" d="M77 7c-8,-3 -19,-5 -31,-5 -11,0 -22,2 -30,5 -9,3 -14,8 -14,13l0 59c0,6 5,11 14,14 8,3 19,5 30,5 12,0 23,-2 31,-5 9,-3 14,-8 14,-14l0 -59c0,-5 -5,-10 -14,-13zm8 72c0,3 -4,7 -10,9 -8,3 -18,5 -29,5 -11,0 -21,-2 -28,-5 -7,-2 -11,-6 -11,-9l0 -10c2,2 5,4 9,5 8,3 19,5 30,5 12,0 23,-2 31,-5 3,-2 6,-3 8,-5l0 10zm0 -19c0,3 -4,6 -10,9 -8,3 -18,4 -29,4 -11,0 -21,-1 -28,-4 -7,-3 -11,-6 -11,-9l0 -10c2,1 5,3 9,4 8,3 19,5 30,5 12,0 23,-2 31,-5 3,-1 6,-3 8,-4l0 10zm0 -20c0,3 -4,7 -10,9 -8,3 -18,5 -29,5 -11,0 -21,-2 -28,-5 -7,-2 -11,-6 -11,-9l0 0 0 -10c2,1 5,3 9,4 8,3 19,5 30,5 12,0 23,-2 31,-5 3,-1 6,-3 8,-4l0 10zm-10 -11c-8,3 -18,5 -29,5 -11,0 -21,-2 -28,-5 -7,-2 -11,-6 -11,-9 0,-3 4,-6 11,-8 7,-3 17,-5 28,-5 11,0 21,2 29,5 6,2 10,5 10,8 0,3 -4,7 -10,9z"/>
   </g>
   <g>
   </g>
   <g>
   </g>
   <g>
   </g>
   <g>
   </g>
   <g>
   </g>
   <g>
   </g>
   <g>
   </g>
   <g>
   </g>
   <g>
   </g>
   <g>
   </g>
   <g>
   </g>
   <g>
   </g>
   <g>
   </g>
   <g>
   </g>
   <g>
   </g>
  </g>
 </g>
</svg>
