<?xml version="1.0" encoding="UTF-8"?>
<!DOCTYPE svg PUBLIC "-//W3C//DTD SVG 1.1//EN" "http://www.w3.org/Graphics/SVG/1.1/DTD/svg11.dtd">
<!-- Creator: CorelDRAW X7 -->
<svg xmlns="http://www.w3.org/2000/svg" xml:space="preserve" width="22.3772mm" height="22.3772mm" version="1.1" style="shape-rendering:geometricPrecision; text-rendering:geometricPrecision; image-rendering:optimizeQuality; fill-rule:evenodd; clip-rule:evenodd"
viewBox="0 0 125 125"
 xmlns:xlink="http://www.w3.org/1999/xlink">
 <defs>
  <style type="text/css">
   <![CDATA[
    .str0 {stroke:#505961;stroke-width:2.78836}
    .fil0 {fill:#505961;fill-rule:nonzero}
   ]]>
  </style>
 </defs>
 <g id="Camada_x0020_1">
  <metadata id="CorelCorpID_0Corel-Layer"/>
  <path class="fil0 str0" d="M62 116c30,0 54,-24 54,-54 0,-29 -24,-53 -54,-53 -29,0 -53,24 -53,53 0,30 24,54 53,54zm0 -115c34,0 61,28 61,61 0,34 -27,61 -61,61 -33,0 -61,-27 -61,-61 0,-33 28,-61 61,-61zm0 26c2,0 4,2 4,4l0 28 19 0c2,0 4,1 4,3 0,3 -2,4 -4,4l-23 0c-2,0 -3,-1 -3,-4l0 -31c0,-2 1,-4 3,-4z"/>
 </g>
</svg>
