<?xml version="1.0" encoding="UTF-8"?>
<!DOCTYPE svg PUBLIC "-//W3C//DTD SVG 1.1//EN" "http://www.w3.org/Graphics/SVG/1.1/DTD/svg11.dtd">
<!-- Creator: CorelDRAW X7 -->
<svg xmlns="http://www.w3.org/2000/svg" xml:space="preserve" width="15.6888mm" height="22.5182mm" version="1.1" style="shape-rendering:geometricPrecision; text-rendering:geometricPrecision; image-rendering:optimizeQuality; fill-rule:evenodd; clip-rule:evenodd"
viewBox="0 0 67 96"
 xmlns:xlink="http://www.w3.org/1999/xlink">
 <defs>
  <style type="text/css">
   <![CDATA[
    .str0 {stroke:#505961;stroke-width:2.82496}
    .fil0 {fill:#505961;fill-rule:nonzero}
   ]]>
  </style>
 </defs>
 <g id="Camada_x0020_1">
  <metadata id="CorelCorpID_0Corel-Layer"/>
  <path class="fil0 str0" d="M60 76c0,7 -7,13 -15,13l-24 0c-7,0 -14,-6 -14,-13l0 -9c0,-6 5,-11 11,-13 4,4 10,6 15,6 6,0 11,-2 16,-6 6,2 11,7 11,13l0 9zm-47 -46c0,-12 9,-23 20,-23 12,0 21,11 21,23 0,13 -9,24 -21,24 -11,0 -20,-11 -20,-24zm41 19c3,-5 6,-12 6,-19 0,-16 -12,-29 -27,-29 -14,0 -26,13 -26,29 0,7 2,14 6,19 -7,2 -12,9 -12,16l0 12c0,10 8,17 18,17l29 0c10,0 17,-7 17,-17l0 -12c0,-7 -5,-14 -11,-16z"/>
 </g>
</svg>
