<?xml version="1.0" encoding="UTF-8"?>
<!DOCTYPE svg PUBLIC "-//W3C//DTD SVG 1.1//EN" "http://www.w3.org/Graphics/SVG/1.1/DTD/svg11.dtd">
<!-- Creator: CorelDRAW X7 -->
<svg xmlns="http://www.w3.org/2000/svg" xml:space="preserve" width="6.3187mm" height="6.3187mm" version="1.1" style="shape-rendering:geometricPrecision; text-rendering:geometricPrecision; image-rendering:optimizeQuality; fill-rule:evenodd; clip-rule:evenodd"
viewBox="0 0 777 777"
 xmlns:xlink="http://www.w3.org/1999/xlink">
 <defs>
  <style type="text/css">
   <![CDATA[
    .str0 {stroke:#FECA42;stroke-width:24.5835}
    .fil1 {fill:#FEFEFE}
    .fil0 {fill:#FECA42}
   ]]>
  </style>
 </defs>
 <g id="Camada_x0020_1">
  <metadata id="CorelCorpID_0Corel-Layer"/>
  <circle class="fil0 str0" cx="388" cy="388" r="376"/>
  <g id="_623944528">
   <g>
    <g>
     <path class="fil1" d="M520 285l-8 0 0 -76c0,-5 -4,-10 -10,-10l-228 0c-5,0 -10,5 -10,10l0 76 -8 0c-33,0 -59,26 -59,59l0 122c0,33 26,59 59,59l8 0 0 77c0,5 5,10 10,10l228 0c6,0 10,-5 10,-10l0 -77 8 0c33,0 59,-26 59,-59l0 -122c0,-33 -26,-59 -59,-59zm-236 -66l208 0 0 66 -208 0 0 -66zm208 373l-208 0 0 -121 208 0 0 121zm68 -126c0,22 -18,39 -40,39l-8 0 0 -34 21 0c6,0 10,-5 10,-10 0,-6 -4,-10 -10,-10l-31 0 -228 0 -28 0c-6,0 -10,4 -10,10 0,5 4,10 10,10l18 0 0 34 -8 0c-22,0 -40,-17 -40,-39l0 -122c0,-22 18,-39 40,-39l18 0 228 0 18 0c22,0 40,17 40,39l0 122 0 0z"/>
     <path class="fil1" d="M502 344c-7,0 -13,6 -13,13 0,8 6,14 13,14 8,0 14,-6 14,-14 0,-7 -6,-13 -14,-13z"/>
     <path class="fil1" d="M307 505l162 0c6,0 10,-5 10,-10 0,-6 -4,-10 -10,-10l-162 0c-6,0 -10,4 -10,10 0,5 4,10 10,10z"/>
     <path class="fil1" d="M307 541l162 0c6,0 10,-4 10,-10 0,-5 -4,-10 -10,-10l-162 0c-6,0 -10,5 -10,10 0,6 4,10 10,10z"/>
    </g>
   </g>
   <g>
   </g>
   <g>
   </g>
   <g>
   </g>
   <g>
   </g>
   <g>
   </g>
   <g>
   </g>
   <g>
   </g>
   <g>
   </g>
   <g>
   </g>
   <g>
   </g>
   <g>
   </g>
   <g>
   </g>
   <g>
   </g>
   <g>
   </g>
   <g>
   </g>
  </g>
 </g>
</svg>
