<?xml version="1.0" encoding="UTF-8"?>
<!DOCTYPE svg PUBLIC "-//W3C//DTD SVG 1.1//EN" "http://www.w3.org/Graphics/SVG/1.1/DTD/svg11.dtd">
<!-- Creator: CorelDRAW X7 -->
<svg xmlns="http://www.w3.org/2000/svg" xml:space="preserve" width="41.036mm" height="24.4778mm" version="1.1" style="shape-rendering:geometricPrecision; text-rendering:geometricPrecision; image-rendering:optimizeQuality; fill-rule:evenodd; clip-rule:evenodd"
viewBox="0 0 1245 743"
 xmlns:xlink="http://www.w3.org/1999/xlink">
 <defs>
  <style type="text/css">
   <![CDATA[
    .fil0 {fill:none}
    .fil1 {fill:#439FE0}
   ]]>
  </style>
 </defs>
 <g id="Camada_x0020_1">
  <metadata id="CorelCorpID_0Corel-Layer"/>
  <ellipse class="fil0" cx="624" cy="371" rx="621" ry="371"/>
  <g id="_722030400">
   <g>
    <path class="fil0" d="M589 450c-5,0 -9,-1 -12,-2 -3,-2 -5,-5 -7,-9l-4 -11c-4,4 -9,8 -13,11 -5,3 -9,5 -14,8 -5,2 -10,3 -15,4 -5,1 -11,2 -17,2 -9,0 -17,-1 -24,-4 -6,-2 -12,-5 -17,-10 -5,-4 -9,-9 -12,-16 -2,-6 -4,-14 -4,-22 0,-7 2,-14 6,-21 3,-7 9,-13 17,-19 8,-5 20,-10 34,-14 14,-4 32,-6 53,-6l0 -8c0,-11 -2,-19 -7,-24 -4,-5 -11,-7 -19,-7 -7,0 -12,0 -16,2 -4,1 -8,3 -12,5 -3,1 -6,3 -9,5 -3,1 -7,2 -11,2 -4,0 -8,-1 -10,-3 -3,-2 -5,-4 -7,-7l-10 -18c11,-10 24,-17 38,-22 14,-5 28,-7 44,-7 12,0 22,1 31,5 9,4 17,9 23,16 6,6 11,14 15,23 3,9 5,19 5,30l0 117 -26 0 0 0 0 0 0 0zm-64 -34c7,0 13,-1 19,-4 5,-3 10,-7 16,-12l0 -26c-11,0 -20,1 -28,2 -7,2 -13,3 -17,6 -4,2 -7,4 -9,7 -1,3 -2,6 -2,9 0,7 2,11 5,14 4,2 9,4 16,4l0 0z"/>
    <path class="fil0" d="M765 450c-4,0 -7,-1 -9,-2 -3,-2 -4,-4 -5,-7l-5 -15c-3,4 -7,8 -11,11 -4,3 -9,6 -14,8 -4,3 -10,5 -15,6 -5,1 -11,2 -18,2 -10,0 -19,-2 -27,-7 -8,-4 -15,-10 -22,-18 -6,-9 -10,-19 -14,-31 -3,-12 -5,-25 -5,-40 0,-14 2,-27 6,-39 4,-12 9,-23 16,-31 7,-9 16,-16 26,-21 10,-5 20,-7 32,-7 10,0 18,1 25,4 7,3 13,6 18,11l0 -95 56 0 0 271 -34 0 0 0 0 0 0 0zm-57 -40c4,0 8,-1 11,-1 3,-1 6,-2 9,-4 3,-1 5,-3 8,-5 2,-2 5,-5 7,-8l0 -79c-4,-5 -9,-8 -14,-10 -5,-2 -10,-3 -15,-3 -5,0 -10,1 -14,3 -5,2 -9,5 -12,10 -3,4 -5,10 -7,18 -2,7 -3,15 -3,26 0,10 1,18 2,25 2,6 4,12 6,16 3,4 6,7 10,9 3,2 7,3 12,3l0 0z"/>
    <path class="fil0" d="M951 450c-6,0 -10,-1 -13,-2 -2,-2 -4,-5 -6,-9l-4 -11c-5,4 -9,8 -14,11 -4,3 -9,5 -13,8 -5,2 -10,3 -15,4 -6,1 -11,2 -18,2 -8,0 -16,-1 -23,-4 -7,-2 -13,-5 -18,-10 -5,-4 -9,-9 -11,-16 -3,-6 -4,-14 -4,-22 0,-7 2,-14 5,-21 3,-7 9,-13 18,-19 8,-5 19,-10 33,-14 14,-4 32,-6 54,-6l0 -8c0,-11 -3,-19 -7,-24 -5,-5 -11,-7 -20,-7 -6,0 -12,0 -16,2 -4,1 -8,3 -11,5 -3,1 -7,3 -10,5 -3,1 -7,2 -11,2 -4,0 -7,-1 -10,-3 -3,-2 -5,-4 -6,-7l-10 -18c11,-10 24,-17 37,-22 14,-5 29,-7 45,-7 11,0 21,1 30,5 10,4 17,9 24,16 6,6 11,14 14,23 3,9 5,19 5,30l0 117 -25 0 0 0 0 0 0 0zm-65 -34c7,0 14,-1 19,-4 5,-3 11,-7 17,-12l0 -26c-12,0 -21,1 -28,2 -7,2 -13,3 -17,6 -5,2 -8,4 -9,7 -2,3 -3,6 -3,9 0,7 2,11 6,14 3,2 8,4 15,4l0 0z"/>
    <path class="fil0" d="M994 450l0 -188 35 0c3,0 6,1 9,3 2,1 4,4 5,7l3 10c3,-3 6,-6 10,-9 3,-3 7,-5 11,-7 3,-2 8,-4 12,-5 5,-1 10,-2 15,-2 11,0 21,3 28,9 8,6 13,14 17,24 3,-6 7,-11 12,-15 4,-4 9,-8 14,-10 6,-3 11,-5 17,-6 6,-1 12,-2 18,-2 10,0 20,2 28,5 7,3 12,6 17,11l0 175 -35 0 0 -119c0,-20 -8,-29 -25,-29 -8,0 -14,2 -19,7 -5,5 -7,12 -7,22l0 119 -56 0 0 -119c0,-11 -3,-19 -7,-23 -4,-4 -10,-6 -18,-6 -6,0 -10,1 -15,3 -4,2 -9,5 -13,9l0 136 -56 0 0 0 0 0 0 0z"/>
   </g>
   <g>
    <path class="fil0" d="M278 378c-44,-22 -64,-63 -64,-63 -3,-1 -5,-2 -9,-3 -1,0 -1,0 -2,0 -3,-1 -6,-1 -9,-1 -9,1 -16,3 -25,6 -12,5 -19,14 -24,24 -1,2 -2,4 -3,6 -1,4 -2,6 -3,10 0,0 0,1 -1,1 0,0 6,41 -1,76 -8,35 -28,56 -25,63 4,10 7,15 15,22 3,2 5,4 8,6 5,3 5,2 8,4 3,1 6,2 9,3 2,0 5,0 7,0 0,0 0,1 1,1 4,0 8,0 11,-1l11 -4 4 -1c11,-6 26,-19 34,-26 3,-2 5,-4 8,-6l17 -11c8,-4 26,-8 37,-10 11,-1 25,-3 36,-8l5 -2c10,-5 18,-14 23,-23 6,-13 8,-26 4,-40 -6,-19 -28,-1 -72,-23l0 0 0 0z"/>
    <path class="fil0" d="M304 240c0,-2 0,-5 0,-7 0,-4 -2,-8 -5,-12 -2,-3 -6,-5 -11,-6 0,4 0,8 0,11 0,3 0,6 0,9 1,2 1,4 1,5 -14,7 -23,31 -22,50 0,22 15,40 34,39 18,0 32,-18 32,-40 0,-19 -14,-43 -29,-49l0 0 0 0z"/>
    <path class="fil0" d="M207 286c22,-5 35,-30 29,-57 -5,-22 -25,-47 -45,-51 0,-2 0,-3 0,-4 0,-5 -2,-9 -5,-12 -2,-3 -6,-5 -11,-6 -1,4 0,8 0,11 0,3 0,6 0,9 1,1 1,2 1,2 -19,9 -26,44 -20,69 6,26 29,44 51,39l0 0z"/>
    <path class="fil0" d="M118 328c21,-12 27,-42 12,-67 -13,-24 -48,-45 -70,-37 0,-1 -1,-1 -1,-2 -2,-2 -4,-4 -6,-6 -3,-2 -6,-5 -10,-7 -2,4 -2,8 -1,12 0,4 2,8 5,11 0,1 1,1 1,2 -10,17 -5,48 6,69 14,26 43,37 64,25l0 0 0 0z"/>
    <path class="fil0" d="M83 371c-15,-19 -48,-32 -66,-23 -1,0 -1,-1 -2,-1 -1,-2 -3,-5 -6,-7 -2,-2 -5,-4 -9,-7l0 0 0 19c1,2 2,4 4,5 1,1 2,2 3,3 -6,16 3,43 16,59 16,20 42,25 59,12 16,-14 16,-41 1,-60l0 0 0 0z"/>
   </g>
  </g>
  <path class="fil1" d="M115 460c23,0 41,-7 52,-22 10,-15 16,-37 16,-67 0,-15 -2,-27 -4,-38 -3,-10 -7,-19 -13,-26 -6,-6 -14,-11 -23,-14 -9,-3 -20,-5 -33,-5l-41 0 0 172 46 0 0 0zm-99 45l0 -262 101 0c18,0 34,3 49,9 15,6 28,14 38,25 11,11 19,25 25,41 7,15 9,33 9,53 0,20 -2,38 -8,55 -5,16 -13,30 -23,42 -10,11 -22,20 -35,27 -14,6 -30,10 -46,10l-110 0 0 0zm334 -38c31,0 46,-20 46,-59 0,-39 -15,-59 -46,-59 -32,0 -47,20 -47,59 0,39 15,59 47,59zm0 43c-16,0 -30,-3 -43,-8 -12,-5 -22,-12 -31,-21 -8,-9 -15,-19 -19,-32 -5,-13 -7,-26 -7,-41 0,-15 2,-29 7,-42 4,-13 11,-23 20,-32 8,-9 19,-16 31,-21 12,-5 26,-7 42,-7 15,0 28,2 40,7 13,5 23,12 31,20 9,9 16,20 20,33 5,12 7,26 7,42 0,15 -2,29 -7,42 -4,12 -11,23 -20,32 -8,9 -18,16 -31,20 -12,5 -26,8 -40,8l0 0zm115 -5l0 -265 51 0 0 265 -51 0zm162 -39c30,0 44,-20 44,-60 0,-17 -4,-31 -12,-42 -8,-11 -19,-17 -31,-17 -13,0 -23,6 -31,16 -9,10 -13,23 -13,40 0,42 15,63 43,63l0 0zm-91 130l0 -285 49 0 0 24c12,-20 30,-29 54,-29 12,0 24,2 34,7 10,5 19,11 27,20 7,9 13,20 17,33 4,13 6,27 6,44 0,14 -2,28 -5,40 -4,12 -9,23 -16,32 -6,9 -15,16 -25,20 -9,5 -21,8 -33,8 -24,0 -43,-10 -58,-31l0 117 -50 0 0 0zm328 -91l0 -121c0,-14 -3,-24 -8,-30 -5,-5 -13,-8 -25,-8 -7,0 -12,2 -17,4 -5,3 -9,6 -13,10 -3,5 -6,10 -7,15 -2,6 -3,12 -3,19l0 111 -51 0 0 -265 51 0 0 96c2,-4 5,-8 8,-12 4,-4 9,-7 14,-10 5,-2 10,-4 16,-6 6,-1 13,-2 19,-2 20,0 36,5 49,16 12,11 18,26 18,46l0 137 -51 0 0 0zm73 0l0 -194 51 0 0 194 -51 0zm0 -217l0 -48 51 0 0 48 -51 0zm197 217l0 -118c0,-15 -2,-25 -7,-30 -5,-5 -14,-8 -26,-8 -27,0 -40,15 -40,45l0 111 -51 0 0 -194 49 0 0 28c6,-11 14,-19 24,-25 10,-5 23,-8 38,-8 10,0 18,1 26,4 8,3 15,7 20,12 6,6 10,13 14,21 3,8 5,17 5,27l0 135 -52 0 0 0z"/>
 </g>
</svg>
