<?xml version="1.0" encoding="UTF-8"?>
<!DOCTYPE svg PUBLIC "-//W3C//DTD SVG 1.1//EN" "http://www.w3.org/Graphics/SVG/1.1/DTD/svg11.dtd">
<!-- Creator: CorelDRAW X7 -->
<svg xmlns="http://www.w3.org/2000/svg" xml:space="preserve" width="173.48mm" height="80.1941mm" version="1.1" style="shape-rendering:geometricPrecision; text-rendering:geometricPrecision; image-rendering:optimizeQuality; fill-rule:evenodd; clip-rule:evenodd"
viewBox="0 0 4148 1917"
 xmlns:xlink="http://www.w3.org/1999/xlink">
 <defs>
  <style type="text/css">
   <![CDATA[
    .fil0 {fill:none}
    .fil2 {fill:#489ED6}
    .fil1 {fill:#439FE0}
   ]]>
  </style>
 </defs>
 <g id="Camada_x0020_1">
  <metadata id="CorelCorpID_0Corel-Layer"/>
  <ellipse class="fil0" cx="1912" cy="959" rx="1612" ry="959"/>
  <g id="_722030400">
   <g>
    <path class="fil0" d="M1821 1168c-14,0 -25,-2 -32,-6 -7,-3 -13,-11 -18,-23l-10 -27c-12,10 -23,20 -35,27 -11,8 -23,15 -35,20 -12,6 -25,10 -39,13 -13,2 -28,4 -45,4 -22,0 -42,-4 -61,-9 -17,-6 -33,-14 -46,-26 -12,-11 -22,-25 -29,-42 -7,-17 -10,-37 -10,-58 0,-17 4,-35 13,-54 8,-18 24,-34 46,-50 21,-14 50,-27 87,-37 36,-10 83,-15 138,-15l0 -21c0,-28 -6,-49 -17,-62 -12,-13 -29,-19 -50,-19 -17,0 -32,2 -42,6 -12,4 -22,8 -30,12 -8,5 -17,9 -25,13 -8,4 -18,6 -29,6 -10,0 -19,-3 -26,-8 -7,-5 -13,-11 -16,-18l-27 -45c30,-26 63,-46 98,-59 36,-12 74,-18 116,-18 29,0 56,4 79,14 23,9 44,23 60,40 17,17 29,37 38,61 9,23 13,49 13,77l0 304 -66 0 0 0 0 0zm-168 -89c19,0 36,-3 50,-10 13,-6 28,-17 42,-31l0 -67c-29,0 -53,2 -71,6 -19,3 -34,8 -45,14 -11,5 -19,12 -23,19 -4,7 -6,15 -6,24 0,16 4,28 13,35 10,7 23,10 40,10z"/>
    <path class="fil0" d="M2276 1168c-9,0 -17,-2 -23,-6 -6,-4 -10,-10 -12,-18l-12 -37c-10,10 -20,19 -31,28 -10,8 -22,15 -34,21 -12,6 -26,11 -40,15 -14,3 -30,5 -47,5 -24,0 -48,-6 -70,-17 -22,-11 -40,-28 -56,-49 -15,-22 -27,-48 -37,-79 -8,-30 -13,-65 -13,-105 0,-36 5,-70 15,-101 10,-31 24,-59 43,-81 18,-22 40,-40 65,-53 26,-13 54,-19 86,-19 25,0 46,3 63,11 18,7 33,17 47,29l0 -247 146 0 0 703 -90 0 0 0 0 0zm-147 -104c10,0 20,-2 28,-3 9,-2 17,-5 24,-9 7,-4 14,-8 21,-14 6,-6 12,-12 18,-20l0 -206c-11,-13 -23,-21 -35,-26 -13,-5 -27,-7 -40,-7 -14,0 -26,2 -37,8 -12,5 -22,13 -30,25 -8,12 -15,27 -19,46 -5,19 -7,41 -7,68 0,26 2,47 5,65 4,17 9,32 16,42 6,11 15,19 24,24 10,5 20,7 32,7z"/>
    <path class="fil0" d="M2759 1168c-14,0 -25,-2 -31,-6 -8,-3 -13,-11 -18,-23l-10 -27c-12,10 -24,20 -36,27 -11,8 -23,15 -35,20 -12,6 -25,10 -38,13 -14,2 -29,4 -46,4 -22,0 -42,-4 -60,-9 -18,-6 -34,-14 -46,-26 -13,-11 -23,-25 -29,-42 -7,-17 -11,-37 -11,-58 0,-17 4,-35 13,-54 9,-18 24,-34 46,-50 22,-14 51,-27 87,-37 36,-10 83,-15 139,-15l0 -21c0,-28 -6,-49 -18,-62 -12,-13 -28,-19 -50,-19 -17,0 -31,2 -42,6 -11,4 -21,8 -30,12 -8,5 -17,9 -24,13 -9,4 -18,6 -30,6 -10,0 -19,-3 -25,-8 -8,-5 -13,-11 -17,-18l-26 -45c29,-26 62,-46 98,-59 36,-12 74,-18 115,-18 29,0 56,4 79,14 24,9 44,23 60,40 17,17 30,37 39,61 8,23 13,49 13,77l0 304 -67 0 0 0 0 0zm-167 -89c19,0 35,-3 49,-10 14,-6 28,-17 43,-31l0 -67c-29,0 -53,2 -72,6 -19,3 -34,8 -45,14 -11,5 -19,12 -23,19 -4,7 -6,15 -6,24 0,16 5,28 14,35 9,7 22,10 40,10l0 0z"/>
    <path class="fil0" d="M2873 1168l0 -487 89 0c10,0 17,2 23,6 7,4 11,10 13,19l9 26c7,-9 16,-17 25,-24 8,-7 18,-13 28,-18 10,-5 21,-9 33,-12 12,-3 25,-5 39,-5 29,0 53,8 73,23 19,15 33,36 44,61 8,-15 18,-28 29,-38 12,-11 25,-20 38,-26 14,-7 29,-12 44,-15 15,-3 30,-5 45,-5 28,0 53,4 74,13 18,7 33,15 45,27l0 455 -92 0 0 -309c0,-51 -21,-76 -64,-76 -20,0 -37,6 -50,19 -13,14 -19,32 -19,57l0 309 -145 0 0 -309c0,-28 -6,-48 -17,-59 -11,-11 -27,-17 -48,-17 -14,0 -26,3 -38,9 -12,6 -22,13 -33,24l0 352 -145 0 0 0 0 0z"/>
   </g>
   <g>
    <path class="fil0" d="M1013 982c-113,-58 -167,-166 -167,-166 -6,-1 -13,-4 -22,-6 -2,0 -3,-1 -5,-1 -8,-1 -16,-2 -23,-1 -24,1 -43,6 -66,15 -32,14 -50,37 -63,63 -3,5 -4,10 -6,14 -5,12 -6,17 -9,27 -1,1 0,2 -1,4 0,0 15,105 -4,195 -20,90 -74,146 -66,164 13,27 19,39 41,58 6,6 13,11 20,15 12,7 14,6 21,10 7,4 15,5 23,7 5,1 12,2 17,2 1,0 2,1 3,1 10,0 20,0 30,-3l29 -9 8 -4c29,-15 68,-48 90,-67 7,-6 13,-10 19,-15l44 -28c23,-11 69,-22 96,-25 30,-5 65,-10 94,-22l14 -6c26,-13 46,-34 59,-60 16,-33 21,-67 10,-103 -14,-50 -73,-2 -186,-59l0 0z"/>
    <path class="fil0" d="M1080 624c1,-7 1,-13 1,-19 -1,-12 -6,-22 -13,-30 -7,-8 -16,-15 -28,-18 -2,12 -2,22 -2,30 0,9 1,16 2,23 1,5 2,10 3,14 -38,17 -61,80 -60,129 1,57 41,102 89,101 47,0 85,-47 84,-104 -1,-50 -36,-111 -76,-126l0 0z"/>
    <path class="fil0" d="M828 742c57,-13 91,-79 76,-147 -12,-58 -66,-121 -117,-134 0,-3 1,-7 0,-10 -1,-11 -6,-22 -13,-29 -6,-9 -15,-15 -27,-18 -3,12 -2,22 -2,30 0,9 1,16 2,23 0,2 0,4 1,6 -50,22 -66,113 -52,178 15,68 74,114 132,101z"/>
    <path class="fil0" d="M597 851c55,-30 70,-108 33,-174 -35,-62 -126,-117 -182,-96 -2,-1 -3,-3 -4,-5 -5,-5 -10,-10 -16,-16 -6,-6 -14,-12 -24,-18 -6,11 -7,22 -5,32 2,10 7,21 14,29 1,2 3,3 4,4 -27,44 -15,126 15,181 36,65 110,94 165,63l0 0z"/>
    <path class="fil0" d="M506 963c-39,-49 -125,-83 -171,-58 -1,-2 -3,-4 -4,-5 -4,-5 -10,-11 -16,-16 -6,-6 -13,-12 -23,-19l-1 0 0 48c3,5 6,10 9,14 3,3 7,5 10,8 -16,42 7,110 40,152 41,52 110,66 153,31 42,-34 44,-104 3,-155l0 0z"/>
   </g>
  </g>
  <path class="fil1" d="M493 1194c62,0 107,-19 135,-57 28,-39 42,-97 42,-173 0,-39 -4,-72 -11,-99 -6,-27 -17,-49 -33,-67 -15,-17 -35,-30 -59,-37 -23,-8 -52,-12 -86,-12l-106 0 0 445 118 0zm-256 116l0 -679 263 0c46,0 88,8 127,23 39,15 72,37 99,66 28,29 50,63 65,104 16,41 24,88 24,140 0,51 -7,98 -21,141 -14,43 -34,79 -60,109 -26,31 -57,54 -93,71 -36,17 -76,25 -119,25l-285 0zm866 -98c81,0 122,-51 122,-154 0,-101 -41,-152 -122,-152 -81,0 -121,51 -121,152 0,103 40,154 121,154zm0 111c-41,0 -77,-6 -109,-19 -32,-13 -59,-31 -82,-54 -22,-24 -39,-51 -50,-84 -12,-33 -17,-69 -17,-108 0,-39 6,-75 17,-108 12,-33 30,-61 52,-84 23,-23 50,-41 81,-53 32,-13 68,-19 108,-19 40,0 75,6 106,19 32,12 58,30 81,53 22,23 39,50 51,83 12,33 18,69 18,109 0,41 -6,77 -18,109 -12,33 -29,60 -51,84 -23,23 -49,41 -81,53 -32,13 -67,19 -106,19zm299 -13l0 -687 133 0 0 687 -133 0zm422 -100c76,0 114,-52 114,-156 0,-45 -10,-81 -31,-110 -21,-28 -49,-42 -82,-42 -32,0 -59,13 -80,40 -22,27 -33,61 -33,104 0,109 37,164 112,164zm-237 338l0 -741 128 0 1 61c30,-49 77,-74 140,-74 31,0 60,6 87,18 27,12 50,30 69,53 19,23 34,52 45,85 11,34 16,71 16,114 0,38 -4,73 -13,104 -10,32 -23,59 -41,83 -18,23 -39,41 -65,53 -25,13 -54,19 -87,19 -62,0 -112,-26 -150,-79l0 304 -130 0zm851 -238l0 -312c0,-38 -6,-64 -20,-78 -13,-14 -35,-21 -66,-21 -16,0 -31,3 -44,10 -12,6 -23,15 -32,26 -9,12 -16,24 -20,39 -5,15 -7,31 -7,48l0 288 -133 0 0 -687 133 0 0 249c5,-11 12,-21 22,-31 10,-10 21,-18 34,-25 13,-7 28,-12 43,-16 16,-4 32,-6 49,-6 52,0 94,14 127,42 32,29 48,68 48,118l0 356 -134 0zm190 0l0 -503 133 0 0 503 -133 0zm0 -563l0 -124 133 0 0 124 -133 0zm511 563l0 -305c0,-39 -6,-65 -19,-78 -13,-14 -35,-21 -66,-21 -69,0 -104,39 -104,116l0 288 -133 0 0 -503 127 0 0 74c16,-29 37,-51 63,-65 25,-15 59,-22 100,-22 24,0 46,3 66,11 21,7 38,17 53,32 15,14 26,32 35,52 8,21 12,45 12,72l0 349 -134 0z"/>
  <polygon class="fil2" points="3976,1311 3847,1080 3712,1311 3547,1311 3765,967 3559,638 3726,638 3847,856 3970,638 4133,638 3929,961 4148,1311 "/>
  <path class="fil2" d="M654 510c5,-15 -3,-23 -14,-32 -26,-19 -14,-41 -72,-82 -68,-49 -162,-53 -242,-37 -15,3 -83,19 -90,19 -8,0 -26,-10 -35,-13 -12,-4 -25,-8 -38,-10 -21,-3 -70,-2 -85,14 0,4 9,6 13,8 6,3 11,6 16,10 11,9 18,18 23,32 8,29 -14,51 -31,72 -28,35 -58,91 -75,133 -10,25 -17,54 -21,80 -6,35 -3,61 8,94 4,15 12,27 16,40 4,9 -6,28 -9,39 -4,12 -16,78 -6,84 6,-3 24,-28 42,-42 20,-16 4,-49 7,-73 2,-10 45,-98 53,-114 59,-122 117,-154 237,-198 4,-1 26,-13 25,-3 -2,7 -11,21 -16,27 -18,23 -41,36 -23,41 21,5 51,-4 70,-16 17,-11 32,-25 45,-41 25,-29 10,-30 53,-35 29,-4 54,-8 83,-7 30,2 38,19 66,10zm-59 -48c4,-3 10,-2 12,3 -4,3 -8,2 -12,-3z"/>
 </g>
</svg>
