<?xml version="1.0" encoding="UTF-8"?>
<!DOCTYPE svg PUBLIC "-//W3C//DTD SVG 1.1//EN" "http://www.w3.org/Graphics/SVG/1.1/DTD/svg11.dtd">
<!-- Creator: CorelDRAW X7 -->
<svg xmlns="http://www.w3.org/2000/svg" xml:space="preserve" width="178.18mm" height="80.1941mm" version="1.1" style="shape-rendering:geometricPrecision; text-rendering:geometricPrecision; image-rendering:optimizeQuality; fill-rule:evenodd; clip-rule:evenodd"
viewBox="0 0 4319 1944"
 xmlns:xlink="http://www.w3.org/1999/xlink">
 <defs>
  <style type="text/css">
   <![CDATA[
    .fil0 {fill:none}
    .fil2 {fill:#489ED6}
    .fil1 {fill:#439FE0}
   ]]>
  </style>
 </defs>
 <g id="Camada_x0020_1">
  <metadata id="CorelCorpID_0Corel-Layer"/>
  <ellipse class="fil0" cx="2050" cy="972" rx="1634" ry="972"/>
  <g id="_722030400">
   <g>
    <path class="fil0" d="M1960 1187c-14,0 -25,-2 -32,-6 -7,-4 -13,-12 -18,-24l-10 -27c-12,11 -24,20 -36,28 -11,8 -23,14 -35,20 -13,5 -26,9 -40,12 -13,3 -28,4 -46,4 -22,0 -43,-3 -61,-9 -18,-5 -34,-14 -47,-26 -13,-11 -23,-25 -29,-42 -7,-17 -11,-37 -11,-59 0,-18 5,-36 14,-54 8,-19 24,-36 46,-51 22,-15 51,-27 88,-38 37,-10 84,-15 141,-15l0 -21c0,-29 -6,-50 -18,-64 -12,-12 -29,-19 -51,-19 -17,0 -32,2 -43,6 -11,4 -21,8 -30,13 -8,5 -17,9 -25,13 -8,4 -18,5 -29,5 -11,0 -19,-2 -27,-7 -7,-5 -12,-11 -16,-18l-27 -46c30,-27 63,-47 99,-59 36,-13 75,-19 117,-19 30,0 57,4 81,14 23,9 44,23 61,40 16,17 29,38 38,62 9,24 14,50 14,78l0 309 -68 0 0 0 0 0zm-170 -90c20,0 36,-3 51,-10 13,-7 28,-18 43,-32l0 -68c-30,0 -54,2 -73,6 -19,3 -34,8 -45,14 -12,6 -19,12 -24,19 -4,8 -6,16 -6,25 0,16 4,28 14,36 9,6 22,10 40,10z"/>
    <path class="fil0" d="M2422 1187c-10,0 -17,-3 -23,-6 -7,-5 -11,-11 -13,-19l-12 -37c-10,10 -20,19 -31,28 -11,9 -22,16 -35,22 -12,6 -26,11 -40,14 -15,4 -30,5 -48,5 -25,0 -49,-5 -71,-17 -22,-11 -40,-28 -57,-49 -15,-22 -28,-48 -37,-80 -9,-31 -13,-66 -13,-106 0,-38 5,-72 15,-103 10,-32 25,-59 43,-82 19,-23 41,-41 67,-54 26,-13 54,-19 86,-19 26,0 47,3 65,11 17,7 33,17 47,29l0 -250 148 0 0 713 -91 0 0 0 0 0zm-150 -106c11,0 21,-1 29,-3 9,-2 17,-5 24,-9 8,-4 14,-8 21,-14 7,-6 13,-12 19,-20l0 -210c-11,-12 -23,-21 -36,-26 -13,-5 -27,-7 -40,-7 -14,0 -27,2 -38,8 -11,5 -22,14 -30,26 -9,12 -15,28 -19,46 -5,20 -8,42 -8,70 0,25 2,47 6,65 4,18 9,32 16,43 6,11 15,19 25,24 9,5 19,7 31,7z"/>
    <path class="fil0" d="M2911 1187c-14,0 -24,-2 -31,-6 -8,-4 -13,-12 -19,-24l-10 -27c-12,11 -24,20 -36,28 -11,8 -23,14 -35,20 -12,5 -25,9 -39,12 -14,3 -29,4 -46,4 -23,0 -43,-3 -62,-9 -18,-5 -33,-14 -46,-26 -13,-11 -23,-25 -30,-42 -7,-17 -10,-37 -10,-59 0,-18 4,-36 13,-54 9,-19 24,-36 46,-51 22,-15 52,-27 89,-38 36,-10 83,-15 140,-15l0 -21c0,-29 -6,-50 -18,-64 -12,-12 -28,-19 -50,-19 -18,0 -32,2 -43,6 -12,4 -22,8 -30,13 -9,5 -17,9 -25,13 -9,4 -19,5 -30,5 -10,0 -19,-2 -26,-7 -7,-5 -13,-11 -17,-18l-26 -46c29,-27 62,-47 99,-59 36,-13 75,-19 117,-19 29,0 56,4 80,14 24,9 45,23 61,40 17,17 30,38 39,62 8,24 13,50 13,78l0 309 -67 0 0 0 -1 0zm-169 -90c19,0 36,-3 50,-10 14,-7 28,-18 43,-32l0 -68c-29,0 -54,2 -73,6 -19,3 -34,8 -45,14 -11,6 -19,12 -23,19 -4,8 -6,16 -6,25 0,16 4,28 13,36 9,6 23,10 41,10l0 0z"/>
    <path class="fil0" d="M3027 1187l0 -494 91 0c9,0 17,2 23,6 6,4 10,10 13,19l8 26c8,-8 17,-16 26,-23 9,-8 18,-14 29,-19 10,-5 21,-9 33,-12 12,-3 25,-5 39,-5 30,0 55,8 74,23 20,16 35,36 45,62 8,-15 18,-28 30,-39 12,-11 25,-20 39,-26 13,-7 28,-12 44,-15 15,-3 31,-5 46,-5 28,0 53,4 75,13 17,7 32,16 45,27l0 462 -93 0 0 -314c0,-51 -22,-77 -65,-77 -20,0 -37,7 -50,20 -14,13 -20,32 -20,57l0 314 -147 0 0 -314c0,-28 -6,-48 -17,-59 -12,-12 -28,-18 -49,-18 -14,0 -27,3 -38,9 -12,6 -23,14 -34,25l0 357 -147 0 0 0 0 0z"/>
   </g>
   <g>
    <path class="fil0" d="M1141 998c-115,-58 -169,-168 -169,-168 -7,-2 -13,-5 -22,-6 -3,-1 -4,-1 -6,-1 -7,-1 -15,-2 -23,-1 -24,1 -43,6 -66,15 -34,14 -51,38 -65,64 -3,5 -4,10 -6,14 -5,12 -5,17 -9,27 -1,1 0,2 -1,4 0,0 15,107 -4,198 -21,92 -75,149 -67,166 13,27 20,40 42,60 5,5 13,10 20,14 13,8 14,7 22,11 6,3 14,5 22,7 6,1 12,2 18,2 1,0 2,1 3,1 10,0 21,0 30,-3l30 -10 8 -4c29,-14 69,-49 91,-68 7,-5 13,-10 20,-15l44 -28c23,-12 70,-22 97,-26 30,-4 67,-10 95,-21l14 -7c27,-13 48,-35 61,-61 16,-33 20,-67 10,-104 -15,-50 -74,-2 -189,-60l0 0z"/>
    <path class="fil0" d="M1209 635c2,-7 2,-13 1,-19 -1,-12 -6,-23 -13,-31 -7,-8 -16,-15 -28,-18 -3,13 -2,22 -2,31 0,8 1,16 2,23 0,5 1,10 2,14 -38,17 -61,81 -60,131 1,58 41,104 90,103 48,-1 86,-48 85,-106 -1,-51 -36,-113 -77,-128l0 0z"/>
    <path class="fil0" d="M953 755c58,-13 93,-80 78,-149 -13,-59 -67,-123 -119,-136 0,-4 1,-7 0,-10 -1,-12 -6,-22 -13,-30 -7,-8 -16,-15 -28,-18 -3,12 -2,22 -2,31 0,8 1,15 2,22 0,3 1,5 1,7 -50,22 -67,114 -52,180 15,70 75,116 133,103z"/>
    <path class="fil0" d="M719 865c56,-31 71,-109 34,-176 -35,-63 -128,-119 -185,-97 -1,-2 -3,-4 -4,-5 -5,-5 -10,-11 -17,-17 -6,-5 -13,-12 -24,-18 -5,11 -6,22 -4,32 1,11 6,21 14,30 1,2 3,2 4,4 -28,45 -16,128 15,183 36,66 112,95 167,64l0 0z"/>
    <path class="fil0" d="M627 978c-40,-49 -127,-83 -173,-58 -2,-2 -3,-4 -4,-5 -5,-5 -10,-11 -16,-17 -7,-5 -14,-12 -24,-18l-1 0 0 48c3,6 6,10 10,15 2,2 6,5 9,7 -16,43 7,112 41,154 42,53 111,67 155,32 43,-35 44,-106 3,-158l0 0z"/>
   </g>
  </g>
  <path class="fil1" d="M614 1214c63,0 108,-20 137,-59 28,-39 42,-98 42,-176 0,-38 -3,-72 -10,-99 -7,-28 -19,-50 -34,-68 -16,-18 -35,-30 -60,-38 -24,-8 -53,-12 -88,-12l-107 0 0 452 120 0zm-259 117l0 -689 266 0c46,0 89,8 128,24 40,15 74,38 102,67 28,29 49,64 65,105 16,42 24,89 24,141 0,53 -7,101 -21,144 -14,43 -34,80 -61,111 -26,30 -57,54 -94,71 -37,17 -77,26 -121,26l-288 0zm878 -100c82,0 123,-52 123,-155 0,-103 -41,-155 -123,-155 -83,0 -124,52 -124,155 0,103 41,155 124,155zm0 113c-42,0 -79,-6 -111,-20 -33,-13 -60,-31 -83,-54 -22,-24 -39,-52 -51,-86 -12,-33 -18,-69 -18,-108 0,-40 6,-77 18,-110 13,-33 30,-62 53,-85 23,-24 50,-42 82,-55 32,-12 69,-19 110,-19 40,0 75,7 107,19 32,13 59,31 82,54 22,23 39,52 52,85 12,33 18,70 18,111 0,40 -6,77 -18,110 -13,33 -30,61 -52,85 -23,23 -50,41 -82,54 -32,13 -68,19 -107,19zm302 -13l0 -697 135 0 0 697 -135 0zm428 -102c78,0 116,-53 116,-158 0,-45 -10,-82 -32,-111 -21,-29 -49,-43 -83,-43 -32,0 -59,14 -81,41 -22,26 -33,62 -33,105 0,111 38,166 113,166zm-240 343l0 -751 129 0 1 62c31,-51 79,-76 142,-76 32,0 62,6 89,19 27,12 51,30 70,54 19,23 34,52 46,86 11,34 16,72 16,115 0,38 -5,74 -14,106 -9,32 -23,60 -41,84 -18,23 -40,41 -66,54 -26,13 -55,19 -88,19 -63,0 -114,-26 -152,-80l0 308 -132 0zm863 -241l0 -316c0,-39 -7,-66 -20,-80 -13,-14 -36,-21 -67,-21 -17,0 -31,3 -44,10 -13,6 -25,15 -34,27 -9,11 -15,24 -20,39 -4,15 -7,31 -7,48l0 293 -134 0 0 -697 134 0 0 253c5,-11 13,-22 23,-32 10,-10 21,-18 34,-25 14,-7 28,-12 44,-17 16,-4 33,-6 50,-6 52,0 95,15 128,43 33,29 49,69 49,120l0 361 -136 0zm193 0l0 -510 135 0 0 510 -135 0zm0 -571l0 -126 135 0 0 126 -135 0zm518 571l0 -309c0,-40 -6,-66 -19,-80 -13,-14 -36,-21 -68,-21 -70,0 -105,39 -105,117l0 293 -134 0 0 -510 128 0 0 74c16,-29 37,-51 63,-65 27,-15 61,-23 102,-23 24,0 47,4 67,11 21,7 39,18 54,33 15,14 26,32 35,53 9,21 13,46 13,73l0 354 -136 0z"/>
  <polygon class="fil2" points="4146,1332 4015,1097 3877,1332 3711,1332 3932,983 3723,649 3892,649 4015,870 4140,649 4305,649 4097,977 4319,1332 "/>
  <path class="fil2" d="M663 396c5,-15 -3,-23 -14,-32 -26,-20 -14,-42 -73,-84 -69,-49 -165,-53 -246,-37 -14,3 -83,19 -91,19 -8,0 -26,-10 -35,-13 -13,-5 -26,-8 -39,-10 -21,-3 -71,-2 -86,14 0,4 9,6 13,8 6,3 11,7 16,10 12,10 19,18 24,33 8,29 -14,52 -31,73 -29,35 -60,92 -77,135 -10,24 -17,54 -21,81 -6,35 -3,61 8,95 5,15 12,27 17,41 3,9 -7,28 -10,39 -3,12 -16,79 -6,86 6,-4 24,-29 43,-44 20,-16 4,-49 7,-73 2,-11 45,-100 53,-116 61,-123 119,-156 241,-200 4,-2 27,-14 25,-4 -1,7 -11,22 -16,28 -18,23 -42,37 -24,41 22,6 53,-4 71,-16 18,-11 33,-26 46,-41 25,-30 10,-31 54,-37 29,-3 55,-7 84,-6 30,2 39,19 67,10zm-60 -48c5,-4 10,-3 13,2 -5,4 -9,2 -13,-2z"/>
 </g>
</svg>
