<?xml version="1.0" encoding="UTF-8"?>
<!DOCTYPE svg PUBLIC "-//W3C//DTD SVG 1.1//EN" "http://www.w3.org/Graphics/SVG/1.1/DTD/svg11.dtd">
<!-- Creator: CorelDRAW X7 -->
<svg xmlns="http://www.w3.org/2000/svg" xml:space="preserve" width="174.026mm" height="80.1941mm" version="1.1" style="shape-rendering:geometricPrecision; text-rendering:geometricPrecision; image-rendering:optimizeQuality; fill-rule:evenodd; clip-rule:evenodd"
viewBox="0 0 4291 1977"
 xmlns:xlink="http://www.w3.org/1999/xlink">
 <defs>
  <style type="text/css">
   <![CDATA[
    .fil0 {fill:none}
    .fil2 {fill:#489ED6}
    .fil1 {fill:#439FE0}
   ]]>
  </style>
 </defs>
 <g id="Camada_x0020_1">
  <metadata id="CorelCorpID_0Corel-Layer"/>
  <ellipse class="fil0" cx="1728" cy="989" rx="1662" ry="989"/>
  <g id="_722030400">
   <g>
    <path class="fil0" d="M1633 1205c-14,0 -25,-2 -32,-6 -8,-4 -14,-12 -19,-24l-10 -28c-13,11 -25,20 -37,28 -11,8 -23,15 -36,21 -12,5 -25,9 -39,12 -14,3 -30,4 -47,4 -23,0 -44,-3 -63,-9 -18,-6 -34,-14 -47,-26 -13,-12 -23,-26 -30,-43 -8,-18 -11,-38 -11,-60 0,-18 4,-37 14,-56 8,-19 24,-36 47,-51 22,-15 52,-28 90,-38 37,-11 85,-16 142,-16l0 -22c0,-29 -6,-50 -18,-64 -12,-13 -29,-19 -51,-19 -18,0 -33,2 -44,5 -11,4 -22,9 -30,14 -9,4 -18,9 -26,13 -9,4 -18,5 -30,5 -11,0 -19,-2 -27,-7 -7,-5 -13,-11 -17,-19l-27 -47c30,-27 64,-47 101,-60 37,-13 76,-19 119,-19 30,0 58,5 82,14 24,10 45,24 62,42 17,17 30,38 39,62 9,25 14,51 14,80l0 314 -69 0 0 0 0 0zm-172 -92c19,0 36,-3 51,-10 14,-7 28,-18 43,-33l0 -69c-29,0 -54,2 -74,6 -19,4 -35,9 -46,15 -11,6 -19,12 -23,20 -5,7 -7,16 -7,24 0,17 5,29 14,37 10,6 23,10 42,10z"/>
    <path class="fil0" d="M2103 1205c-10,0 -18,-3 -24,-7 -6,-4 -10,-10 -13,-18l-12 -39c-10,11 -20,21 -32,30 -10,8 -22,15 -35,22 -13,6 -26,11 -41,14 -15,4 -31,5 -48,5 -26,0 -50,-5 -73,-17 -22,-11 -41,-28 -57,-50 -16,-23 -29,-49 -38,-81 -9,-32 -14,-68 -14,-109 0,-37 5,-72 15,-104 11,-32 26,-60 44,-84 19,-23 42,-41 68,-54 27,-14 56,-20 88,-20 26,0 48,3 66,11 18,8 34,17 48,30l0 -254 150 0 0 725 -92 0 0 0 0 0zm-152 -108c10,0 21,-1 29,-3 9,-2 17,-5 24,-9 8,-4 15,-9 22,-14 7,-6 13,-13 19,-21l0 -213c-11,-12 -24,-22 -37,-26 -13,-5 -27,-8 -41,-8 -14,0 -26,3 -38,8 -12,6 -22,15 -31,27 -8,12 -15,28 -19,47 -5,19 -8,43 -8,70 0,26 2,49 6,67 4,18 9,33 16,44 7,11 16,19 25,24 10,5 21,7 33,7z"/>
    <path class="fil0" d="M2601 1205c-15,0 -25,-2 -33,-6 -7,-4 -13,-12 -18,-24l-10 -28c-13,11 -25,20 -37,28 -11,8 -23,15 -36,21 -13,5 -26,9 -40,12 -14,3 -29,4 -47,4 -22,0 -43,-3 -62,-9 -18,-6 -34,-14 -47,-26 -14,-12 -24,-26 -31,-43 -7,-18 -10,-38 -10,-60 0,-18 4,-37 13,-56 9,-19 25,-36 47,-51 23,-15 53,-28 90,-38 38,-11 86,-16 143,-16l0 -22c0,-29 -6,-50 -18,-64 -12,-13 -29,-19 -52,-19 -17,0 -32,2 -43,5 -12,4 -22,9 -30,14 -9,4 -18,9 -26,13 -9,4 -19,5 -30,5 -11,0 -20,-2 -27,-7 -7,-5 -13,-11 -17,-19l-27 -47c30,-27 64,-47 101,-60 37,-13 76,-19 119,-19 30,0 58,5 82,14 24,10 45,24 62,42 17,17 30,38 39,62 9,25 14,51 14,80l0 314 -69 0 0 0 0 0zm-173 -92c20,0 37,-3 51,-10 14,-7 29,-18 44,-33l0 -69c-30,0 -54,2 -74,6 -20,4 -35,9 -46,15 -11,6 -19,12 -23,20 -5,7 -7,16 -7,24 0,17 5,29 14,37 9,6 23,10 41,10l0 0z"/>
    <path class="fil0" d="M2718 1205l0 -502 93 0c9,0 17,1 23,6 7,4 11,10 14,19l8 27c8,-9 17,-17 26,-24 9,-8 19,-14 29,-19 11,-6 22,-10 34,-13 12,-3 26,-4 40,-4 30,0 56,8 76,23 19,16 34,37 45,63 8,-16 18,-29 31,-40 12,-11 25,-20 39,-26 14,-7 29,-12 44,-15 16,-4 32,-5 47,-5 29,0 55,4 77,12 18,7 33,16 46,28l0 470 -95 0 0 -320c0,-52 -22,-77 -67,-77 -20,0 -37,6 -50,20 -14,13 -20,32 -20,57l0 320 -150 0 0 -320c0,-28 -6,-48 -17,-60 -12,-12 -28,-17 -50,-17 -14,0 -27,3 -39,9 -12,6 -23,14 -34,25l0 363 -150 0 0 0 0 0z"/>
   </g>
   <g>
    <path class="fil0" d="M800 1012c-117,-59 -172,-170 -172,-170 -7,-2 -14,-5 -22,-6 -3,-1 -4,-1 -6,-1 -8,-2 -16,-2 -24,-2 -24,1 -44,7 -67,16 -34,14 -52,38 -66,65 -3,5 -4,10 -6,15 -5,11 -6,17 -9,27 -1,1 -1,2 -2,4 0,0 16,109 -4,202 -20,93 -76,150 -67,168 12,28 20,40 42,61 6,5 14,10 20,14 13,8 15,7 22,11 7,4 15,5 23,7 6,2 13,3 19,3 1,0 2,0 3,0 10,1 21,0 30,-2l30 -10 9 -4c29,-15 70,-50 93,-70 6,-5 12,-10 19,-15l46 -28c23,-12 71,-23 99,-27 30,-4 67,-10 96,-22l14 -6c28,-14 49,-36 62,-62 16,-34 21,-69 10,-106 -15,-51 -75,-2 -192,-62l0 0z"/>
    <path class="fil0" d="M869 643c2,-6 2,-13 1,-19 -1,-12 -6,-23 -13,-31 -7,-9 -16,-16 -29,-18 -2,12 -2,22 -2,31 0,8 1,16 2,23 1,5 1,10 2,15 -38,17 -62,82 -61,132 1,60 42,106 92,105 48,-1 87,-49 86,-108 -1,-51 -37,-114 -78,-130l0 0z"/>
    <path class="fil0" d="M609 765c59,-13 94,-81 79,-152 -13,-59 -68,-125 -121,-138 0,-3 1,-6 0,-10 -1,-12 -6,-22 -13,-30 -7,-9 -16,-15 -29,-18 -2,12 -2,22 -1,31 0,8 1,16 1,23 1,2 1,5 2,7 -52,22 -69,116 -54,183 16,71 77,117 136,104z"/>
    <path class="fil0" d="M371 878c56,-32 72,-112 34,-179 -36,-65 -130,-122 -188,-100 -1,-1 -3,-3 -4,-4 -5,-6 -10,-12 -17,-18 -6,-5 -13,-12 -24,-18 -6,11 -7,22 -5,33 2,11 7,21 14,30 1,2 3,3 4,4 -28,45 -15,130 16,186 37,68 114,97 170,66l0 0z"/>
    <path class="fil0" d="M277 993c-40,-50 -129,-86 -176,-60 -1,-1 -3,-3 -4,-5 -5,-5 -10,-11 -16,-17 -7,-6 -14,-12 -25,-19l0 1 0 49c2,5 5,10 9,14 3,3 7,6 10,8 -16,44 7,114 41,157 43,53 113,68 158,32 44,-35 45,-107 3,-160l0 0z"/>
   </g>
  </g>
  <path class="fil1" d="M264 1232c64,0 110,-20 139,-60 29,-39 43,-99 43,-178 0,-40 -3,-74 -11,-102 -6,-28 -18,-51 -34,-69 -16,-18 -36,-30 -60,-39 -25,-8 -55,-12 -90,-12l-109 0 0 460 122 0zm-264 119l0 -700 271 0c47,0 91,8 131,24 40,15 74,38 103,68 28,29 50,65 67,107 16,42 24,90 24,144 0,53 -7,102 -22,146 -14,44 -35,81 -62,112 -26,32 -58,56 -96,73 -37,17 -78,26 -123,26l-293 0zm893 -101c84,0 126,-53 126,-158 0,-105 -42,-157 -126,-157 -83,0 -125,52 -125,157 0,105 42,158 125,158zm0 115c-42,0 -80,-7 -113,-20 -33,-14 -61,-32 -84,-56 -22,-24 -40,-53 -52,-87 -12,-33 -18,-70 -18,-110 0,-41 6,-78 19,-112 12,-34 30,-63 53,-87 23,-24 51,-42 84,-55 32,-13 70,-19 111,-19 41,0 77,6 110,19 32,13 60,31 82,55 23,24 41,52 53,86 13,34 19,71 19,113 0,41 -6,79 -19,112 -12,33 -30,62 -53,86 -22,24 -50,42 -83,55 -32,13 -69,20 -109,20zm308 -14l0 -708 137 0 0 708 -137 0zm435 -103c79,0 118,-54 118,-161 0,-46 -10,-84 -32,-113 -22,-29 -50,-44 -85,-44 -33,0 -60,14 -82,42 -22,27 -34,63 -34,107 0,112 39,169 115,169zm-244 349l0 -765 132 0 1 64c31,-52 79,-77 144,-77 32,0 62,6 90,19 28,12 52,30 71,54 20,24 35,53 47,88 11,34 16,73 16,117 0,39 -4,75 -14,108 -9,33 -23,61 -41,85 -18,24 -41,42 -67,55 -27,13 -57,20 -90,20 -64,0 -116,-27 -154,-82l0 314 -135 0zm878 -246l0 -322c0,-39 -7,-66 -21,-80 -13,-15 -36,-22 -67,-22 -18,0 -33,4 -46,10 -13,7 -25,16 -34,28 -9,11 -16,25 -20,40 -5,15 -7,31 -7,49l0 297 -137 0 0 -708 137 0 0 257c5,-12 12,-22 23,-32 10,-11 22,-19 35,-26 13,-7 28,-13 44,-17 16,-4 33,-6 51,-6 53,0 97,14 130,43 33,30 50,70 50,122l0 367 -138 0zm196 0l0 -519 137 0 0 519 -137 0zm0 -581l0 -127 137 0 0 127 -137 0zm527 581l0 -314c0,-40 -6,-67 -20,-81 -13,-14 -36,-21 -68,-21 -71,0 -107,39 -107,119l0 297 -137 0 0 -519 131 0 0 76c16,-29 38,-52 64,-67 27,-15 61,-22 103,-22 25,0 48,3 69,11 21,7 39,18 54,33 16,15 27,33 36,54 9,22 13,46 13,75l0 359 -138 0z"/>
  <polygon class="fil2" points="3856,1352 3723,1114 3583,1352 3414,1352 3639,998 3426,658 3598,658 3723,883 3850,658 4018,658 3807,991 4033,1352 "/>
  <path class="fil2" d="M3790 1515l-33 0c-40,-1 -224,-4 -210,-21 4,-4 9,5 138,8 129,3 246,-2 393,-40 50,-13 176,-53 174,-116 0,-37 -41,-61 -69,-77 -57,-30 -114,-34 -104,-39 10,-4 47,6 62,10 47,13 126,52 146,97 18,42 -25,76 -57,95 -106,64 -312,83 -439,83l-1 0z"/>
  <path class="fil2" d="M4034 1405c-6,-6 -79,27 -156,32 -30,4 -92,7 -122,7 -106,0 -291,-15 -375,-72 -30,-21 -43,-51 -10,-78 36,-25 91,-35 88,-40 -5,-6 -112,26 -129,71 -6,17 4,37 18,48 57,45 134,59 204,71 31,5 124,13 157,13 30,0 73,0 102,-2 40,-4 92,-9 122,-16 30,-6 108,-28 101,-34z"/>
  <path class="fil2" d="M3300 1422c7,-5 -23,-12 -32,-18 -69,-42 -51,-109 34,-143 28,-13 80,-18 83,-21 7,-8 -68,6 -100,17 -33,11 -52,20 -76,45 -9,9 -13,19 -15,29l0 10c2,16 11,31 24,43 15,12 67,48 82,38z"/>
  <path class="fil2" d="M4067 1387c21,11 133,-93 -60,-148 -14,-4 -79,-18 -89,-15 7,5 160,27 176,101 9,38 -41,54 -27,62z"/>
 </g>
</svg>
