<?xml version="1.0" encoding="UTF-8"?>
<!DOCTYPE svg PUBLIC "-//W3C//DTD SVG 1.1//EN" "http://www.w3.org/Graphics/SVG/1.1/DTD/svg11.dtd">
<!-- Creator: CorelDRAW X7 -->
<svg xmlns="http://www.w3.org/2000/svg" xml:space="preserve" width="170.719mm" height="72.84mm" version="1.1" style="shape-rendering:geometricPrecision; text-rendering:geometricPrecision; image-rendering:optimizeQuality; fill-rule:evenodd; clip-rule:evenodd"
viewBox="0 0 4156 1773"
 xmlns:xlink="http://www.w3.org/1999/xlink">
 <defs>
  <style type="text/css">
   <![CDATA[
    .fil0 {fill:none}
    .fil2 {fill:#489ED6}
    .fil1 {fill:#439FE0}
   ]]>
  </style>
 </defs>
 <g id="Camada_x0020_1">
  <metadata id="CorelCorpID_0Corel-Layer"/>
  <g id="_671789456">
   <ellipse class="fil0" cx="1651" cy="887" rx="1641" ry="887"/>
   <g id="_722030400">
    <g>
     <path class="fil0" d="M1557 1190c-14,0 -24,-2 -32,-6 -7,-4 -13,-12 -18,-24l-10 -27c-12,10 -24,19 -36,27 -11,8 -23,15 -36,21 -12,5 -25,9 -39,12 -14,3 -29,4 -46,4 -23,0 -43,-3 -62,-9 -18,-6 -34,-14 -47,-26 -13,-12 -23,-26 -30,-43 -7,-17 -10,-37 -10,-59 0,-18 4,-36 13,-55 9,-18 25,-35 47,-50 22,-15 51,-28 89,-38 36,-11 84,-15 141,-15l0 -22c0,-29 -6,-50 -18,-63 -12,-13 -30,-20 -51,-20 -18,0 -32,2 -43,6 -12,4 -22,8 -30,13 -9,5 -18,9 -26,13 -8,4 -18,6 -29,6 -11,0 -19,-3 -27,-8 -7,-5 -12,-11 -16,-18l-27 -47c30,-26 63,-46 99,-59 37,-13 76,-19 118,-19 30,0 57,5 81,14 24,10 44,24 61,41 17,17 30,38 39,62 8,24 13,50 13,79l0 310 -68 0 0 0 0 0zm-170 -91c19,0 36,-3 50,-10 14,-7 29,-18 44,-32l0 -68c-30,0 -54,2 -73,6 -20,3 -35,8 -46,14 -11,5 -19,12 -23,19 -5,8 -7,16 -7,25 0,16 5,28 14,36 10,6 23,10 41,10z"/>
     <path class="fil0" d="M2021 1190c-9,0 -17,-3 -23,-7 -7,-4 -11,-10 -13,-18l-12 -38c-10,10 -20,20 -31,29 -11,8 -23,15 -35,22 -13,6 -26,11 -41,14 -14,3 -30,5 -47,5 -25,0 -50,-6 -72,-17 -22,-11 -40,-28 -57,-50 -16,-22 -28,-48 -37,-80 -9,-31 -14,-67 -14,-107 0,-37 5,-71 15,-103 11,-32 25,-59 44,-82 19,-23 41,-42 67,-54 26,-14 55,-20 86,-20 26,0 48,3 65,11 18,8 34,17 48,30l0 -251 148 0 0 716 -91 0 0 0 0 0zm-150 -107c10,0 21,-1 29,-3 9,-2 17,-5 24,-9 8,-3 14,-8 21,-14 7,-6 13,-12 19,-20l0 -210c-11,-13 -23,-22 -36,-27 -13,-5 -27,-7 -41,-7 -14,0 -26,2 -37,8 -12,5 -22,14 -31,26 -8,12 -15,28 -19,47 -5,19 -7,42 -7,69 0,26 1,48 5,66 4,18 9,32 16,43 7,11 15,19 25,24 10,5 20,7 32,7z"/>
     <path class="fil0" d="M2513 1190c-14,0 -25,-2 -32,-6 -8,-4 -13,-12 -18,-24l-10 -27c-13,10 -25,19 -37,27 -11,8 -23,15 -35,21 -13,5 -26,9 -39,12 -14,3 -30,4 -47,4 -22,0 -43,-3 -62,-9 -18,-6 -33,-14 -46,-26 -13,-12 -23,-26 -30,-43 -7,-17 -10,-37 -10,-59 0,-18 4,-36 13,-55 8,-18 24,-35 46,-50 22,-15 52,-28 89,-38 37,-11 84,-15 141,-15l0 -22c0,-29 -6,-50 -18,-63 -12,-13 -29,-20 -51,-20 -17,0 -32,2 -43,6 -11,4 -21,8 -30,13 -8,5 -17,9 -25,13 -9,4 -18,6 -30,6 -10,0 -19,-3 -26,-8 -7,-5 -13,-11 -17,-18l-27 -47c30,-26 63,-46 100,-59 37,-13 75,-19 118,-19 29,0 57,5 80,14 25,10 45,24 62,41 16,17 29,38 38,62 9,24 14,50 14,79l0 310 -68 0 0 0 0 0zm-170 -91c19,0 35,-3 50,-10 14,-7 28,-18 43,-32l0 -68c-29,0 -54,2 -73,6 -20,3 -34,8 -45,14 -12,5 -20,12 -24,19 -4,8 -6,16 -6,25 0,16 4,28 14,36 9,6 22,10 41,10l0 0z"/>
     <path class="fil0" d="M2629 1190l0 -496 91 0c9,0 17,2 23,6 7,4 11,10 14,18l8 27c8,-8 16,-17 26,-24 8,-7 18,-13 28,-18 11,-6 22,-10 34,-13 12,-3 25,-4 39,-4 30,0 55,8 75,23 19,15 34,36 45,62 8,-15 18,-29 30,-39 12,-11 25,-20 38,-26 14,-7 29,-12 44,-15 16,-4 32,-5 47,-5 28,0 54,4 75,12 18,7 33,16 46,28l0 464 -94 0 0 -316c0,-51 -21,-77 -65,-77 -20,0 -37,7 -51,20 -13,13 -19,32 -19,57l0 316 -148 0 0 -316c0,-28 -6,-48 -17,-59 -12,-12 -28,-18 -49,-18 -14,0 -27,3 -39,9 -12,6 -23,14 -33,25l0 359 -148 0 0 0 0 0z"/>
    </g>
    <g>
     <path class="fil0" d="M735 1000c-115,-59 -170,-169 -170,-169 -7,-2 -13,-4 -22,-6 -3,0 -4,-1 -6,-1 -7,-1 -16,-2 -23,-1 -24,1 -44,6 -67,15 -33,14 -51,38 -65,64 -2,5 -4,10 -6,15 -4,11 -5,17 -9,27 -1,1 0,2 -1,4 0,0 16,107 -4,199 -20,92 -75,149 -67,166 13,28 20,40 42,60 6,5 13,11 20,14 13,8 14,7 22,11 6,4 15,5 22,7 6,2 13,3 18,3 1,0 2,0 3,0 10,1 21,0 31,-2l29 -10 9 -4c29,-15 69,-49 92,-69 6,-5 12,-10 19,-15l45 -28c23,-12 70,-22 97,-26 30,-4 67,-10 95,-21l15 -7c27,-14 47,-35 60,-61 17,-34 21,-68 10,-105 -14,-50 -74,-2 -189,-60l0 0z"/>
     <path class="fil0" d="M803 635c2,-6 2,-13 1,-19 -1,-12 -6,-22 -13,-31 -7,-8 -16,-15 -29,-18 -2,13 -1,22 -1,31 0,8 1,16 1,23 1,5 2,10 3,15 -38,16 -61,80 -60,131 1,58 41,104 90,103 48,-1 86,-48 85,-107 -1,-50 -36,-112 -77,-128l0 0z"/>
     <path class="fil0" d="M546 756c59,-13 94,-81 78,-150 -13,-59 -67,-124 -119,-137 0,-3 1,-6 0,-10 -1,-11 -6,-22 -13,-30 -7,-8 -16,-15 -28,-18 -3,13 -2,22 -2,31 0,9 1,16 2,23 0,2 1,5 1,7 -51,22 -67,114 -53,180 16,70 76,117 134,104z"/>
     <path class="fil0" d="M311 867c56,-31 71,-110 34,-177 -35,-64 -129,-120 -186,-98 -1,-2 -2,-4 -4,-5 -5,-5 -9,-11 -16,-17 -6,-5 -14,-12 -25,-18 -5,11 -6,22 -4,33 2,10 6,20 14,29 1,2 3,3 4,4 -28,45 -16,129 15,184 37,67 113,96 168,65l0 0z"/>
     <path class="fil0" d="M218 980c-39,-49 -126,-84 -173,-59 -2,-1 -3,-3 -5,-5 -4,-5 -9,-11 -15,-16 -7,-6 -14,-12 -25,-19l0 0 0 49c2,5 5,10 9,14 3,3 7,5 10,8 -16,43 7,112 41,155 42,52 111,67 155,31 44,-35 45,-106 3,-158l0 0z"/>
    </g>
   </g>
   <path class="fil1" d="M303 1216c63,0 109,-19 137,-59 28,-39 43,-97 43,-176 0,-39 -4,-72 -11,-100 -7,-28 -18,-50 -34,-68 -15,-18 -35,-31 -59,-39 -25,-8 -54,-12 -89,-12l-107 0 0 454 120 0zm-261 118l0 -691 268 0c46,0 90,8 129,23 40,16 73,38 101,67 29,29 51,65 67,106 16,42 24,89 24,142 0,53 -8,101 -22,144 -14,44 -34,81 -61,111 -26,31 -58,55 -94,72 -37,17 -78,26 -122,26l-290 0zm882 -100c83,0 124,-52 124,-156 0,-103 -41,-155 -124,-155 -82,0 -124,52 -124,155 0,104 42,156 124,156zm0 114c-41,0 -79,-7 -111,-20 -33,-14 -60,-32 -83,-55 -23,-24 -40,-53 -51,-86 -12,-33 -18,-70 -18,-109 0,-40 6,-77 18,-111 12,-33 30,-61 53,-85 22,-24 50,-42 82,-55 32,-12 69,-19 110,-19 40,0 76,7 108,19 32,13 59,31 82,55 23,23 40,51 52,85 12,33 18,70 18,111 0,41 -6,78 -18,111 -12,33 -29,61 -52,85 -23,23 -50,41 -82,54 -32,13 -68,20 -108,20zm304 -14l0 -700 135 0 0 700 -135 0zm430 -102c78,0 117,-53 117,-158 0,-46 -11,-83 -33,-112 -21,-29 -49,-43 -83,-43 -33,0 -60,13 -82,40 -22,27 -33,63 -33,106 0,111 38,167 114,167zm-242 344l0 -754 131 0 1 62c31,-50 78,-76 142,-76 32,0 62,6 89,19 28,12 51,30 71,54 19,24 34,52 45,86 11,35 17,73 17,116 0,39 -5,74 -14,107 -10,32 -23,60 -41,84 -18,23 -40,41 -66,54 -26,13 -56,20 -89,20 -64,0 -114,-27 -152,-81l0 309 -134 0zm868 -242l0 -318c0,-39 -7,-65 -21,-79 -13,-15 -36,-22 -67,-22 -17,0 -31,4 -45,10 -13,7 -24,16 -33,27 -9,12 -16,25 -20,40 -5,15 -7,31 -7,48l0 294 -135 0 0 -700 135 0 0 254c5,-11 12,-21 22,-31 10,-11 22,-19 35,-26 13,-7 28,-12 44,-17 16,-4 33,-6 50,-6 53,0 95,15 129,43 32,29 49,69 49,121l0 362 -136 0zm193 0l0 -512 135 0 0 512 -135 0zm0 -574l0 -126 135 0 0 126 -135 0zm521 574l0 -310c0,-40 -7,-66 -20,-80 -13,-14 -36,-21 -68,-21 -70,0 -105,39 -105,117l0 294 -135 0 0 -512 129 0 0 75c16,-30 37,-51 63,-66 27,-15 61,-23 102,-23 25,0 47,4 68,11 21,8 39,18 54,33 15,14 26,32 35,54 9,21 13,45 13,73l0 355 -136 0z"/>
  </g>
  <polygon class="fil2" points="3784,1335 3653,1100 3514,1335 3347,1335 3569,985 3360,649 3529,649 3653,871 3778,649 3944,649 3735,979 3958,1335 "/>
  <path class="fil2" d="M3951 1227l6 -1c-7,-1 -3,-1 -6,1zm6 2l7 -1c-7,-1 -3,-2 -7,1zm-473 238c1,0 1,0 2,0l5 2c50,11 171,16 223,17 12,0 23,-2 34,-2 74,0 180,-13 251,-34 46,-13 183,-56 153,-125 -14,-32 -50,-49 -78,-63 -19,-9 -89,-33 -110,-33 5,3 40,12 49,16 37,12 107,44 108,87 1,58 -113,94 -157,106 -74,19 -150,29 -226,34 -42,3 -147,3 -192,0 -19,-1 -44,-6 -62,-5z"/>
  <path class="fil2" d="M3413 1247c2,2 9,-2 2,0 0,0 -4,-2 -2,0zm-7 0l7 2 -7 -2zm518 139l0 0c0,-1 -39,12 -43,13 -61,16 -145,22 -208,22 -96,0 -262,-13 -338,-65 -74,-51 26,-97 71,-106l-5 0c-6,0 -36,10 -41,12 -13,4 -31,13 -42,20 -29,18 -45,50 -13,75 48,39 123,54 183,64 71,12 161,15 233,10 52,-3 160,-16 203,-45zm3 -1c0,0 -1,-1 -1,0 0,0 0,-1 0,-1 0,1 -1,3 1,1z"/>
  <path class="fil2" d="M3262 1402c-7,-6 -103,-43 -54,-108 19,-26 61,-41 91,-50 10,-2 33,-5 39,-9 -13,0 -34,4 -47,6 -15,3 -29,6 -43,11 -30,10 -47,18 -69,41 -8,8 -12,18 -13,28l0 5c1,15 10,30 22,41 14,12 55,35 74,35zm0 2c0,1 8,-1 3,-1 -4,0 -5,-1 -3,1z"/>
  <path class="fil2" d="M3961 1370c15,-3 42,-31 46,-47 16,-61 -95,-88 -138,-95 -12,-2 -32,-6 -43,-6 11,8 145,24 160,92 7,31 -18,45 -25,56zm-2 0c-4,0 0,2 0,1 0,0 5,-1 0,-1z"/>
 </g>
</svg>
