<?xml version="1.0" encoding="UTF-8"?>
<!DOCTYPE svg PUBLIC "-//W3C//DTD SVG 1.1//EN" "http://www.w3.org/Graphics/SVG/1.1/DTD/svg11.dtd">
<!-- Creator: CorelDRAW X7 -->
<svg xmlns="http://www.w3.org/2000/svg" xml:space="preserve" width="6.3187mm" height="6.3187mm" version="1.1" style="shape-rendering:geometricPrecision; text-rendering:geometricPrecision; image-rendering:optimizeQuality; fill-rule:evenodd; clip-rule:evenodd"
viewBox="0 0 1274 1274"
 xmlns:xlink="http://www.w3.org/1999/xlink">
 <defs>
  <style type="text/css">
   <![CDATA[
    .str0 {stroke:#0288D1;stroke-width:40.3158}
    .fil1 {fill:#FEFEFE}
    .fil0 {fill:#0288D1}
   ]]>
  </style>
 </defs>
 <g id="Camada_x0020_1">
  <metadata id="CorelCorpID_0Corel-Layer"/>
  <circle class="fil0 str0" cx="637" cy="637" r="617"/>
  <g id="_738005504">
   <g id="Download">
    <path class="fil1" d="M867 847l-469 0c-29,0 -53,24 -53,53 0,30 24,53 53,53l469 0c29,0 53,-23 53,-53 0,-29 -24,-53 -53,-53zm-274 -58c10,9 22,14 35,15 1,0 3,0 4,0 2,0 3,0 5,0 12,-1 25,-6 34,-15l168 -169c21,-21 21,-56 0,-77 -21,-21 -55,-21 -76,0l-78 78 0 -253c0,-29 -23,-53 -53,-53 -29,0 -53,24 -53,53l0 253 -78 -78c-21,-21 -55,-21 -76,0 -21,21 -21,56 0,77l168 169z"/>
   </g>
   <g>
   </g>
   <g>
   </g>
   <g>
   </g>
   <g>
   </g>
   <g>
   </g>
   <g>
   </g>
   <g>
   </g>
   <g>
   </g>
   <g>
   </g>
   <g>
   </g>
   <g>
   </g>
   <g>
   </g>
   <g>
   </g>
   <g>
   </g>
   <g>
   </g>
  </g>
 </g>
</svg>
